<?xml version="1.0" encoding="UTF-8" standalone="no"?>
<svg
   xmlns:dc="http://purl.org/dc/elements/1.1/"
   xmlns:cc="http://creativecommons.org/ns#"
   xmlns:rdf="http://www.w3.org/1999/02/22-rdf-syntax-ns#"
   xmlns:svg="http://www.w3.org/2000/svg"
   xmlns="http://www.w3.org/2000/svg"
   xmlns:sodipodi="http://sodipodi.sourceforge.net/DTD/sodipodi-0.dtd"
   xmlns:inkscape="http://www.inkscape.org/namespaces/inkscape"
   version="1.1"
   id="Capa_1"
   x="0px"
   y="0px"
   width="426.91641"
   height="237.90843"
   viewBox="0 0 426.91641 237.90843"
   xml:space="preserve"
   sodipodi:docname="hanging-up.svg"
   inkscape:version="1.0.1 (3bc2e813f5, 2020-09-07)"
   inkscape:export-filename="/home/jwittouck/workspaces/streamdeck/teams/hanging-up.png"
   inkscape:export-xdpi="96"
   inkscape:export-ydpi="96"><metadata
   id="metadata1928"><rdf:RDF><cc:Work
       rdf:about=""><dc:format>image/svg+xml</dc:format><dc:type
         rdf:resource="http://purl.org/dc/dcmitype/StillImage" /><dc:title></dc:title></cc:Work></rdf:RDF></metadata><defs
   id="defs1926" /><sodipodi:namedview
   pagecolor="#ffffff"
   bordercolor="#666666"
   borderopacity="1"
   objecttolerance="10"
   gridtolerance="10"
   guidetolerance="10"
   inkscape:pageopacity="0"
   inkscape:pageshadow="2"
   inkscape:window-width="1268"
   inkscape:window-height="1363"
   id="namedview1924"
   showgrid="false"
   inkscape:zoom="0.84588775"
   inkscape:cx="65.687213"
   inkscape:cy="189.5563"
   inkscape:window-x="2568"
   inkscape:window-y="32"
   inkscape:window-maximized="0"
   inkscape:current-layer="g1889"
   inkscape:document-rotation="0"
   fit-margin-top="0"
   fit-margin-left="0"
   fit-margin-right="0"
   fit-margin-bottom="0" />
<g
   id="g1891"
   transform="translate(4.4643912e-5,-95.121163)">
	<g
   id="g1889"
   style="fill:#4f57be;fill-opacity:1">
		
		<path
   d="M 232.70231,188.5286 H 205.1393 c -7.622,0 -13.825,6.2 -13.825,13.824 v 60.53 c 0,0.522 -0.198,0.995 -0.554,1.36 -0.371,0.355 -0.845,0.544 -1.374,0.538 l -7.917,-0.065 c -4.139,-0.046 -6.604,1.519 -7.962,2.844 -3.207,3.198 -3.225,8.597 -0.023,12.877 l 35.58901,47.576 c 2.376,3.174 5.83,5.007 9.48,5.017 3.648,0 7.109,-1.817 9.486,-4.986 l 35.581,-47.403 c 1.661,-2.203 2.499,-4.493 2.499,-6.794 0,-4.458 -3.57,-8.993 -10.395,-8.993 h -7.222 c -1.092,0 -1.976,-0.889 -1.976,-1.976 v -60.532 c 0.004,-7.617 -6.202,-13.817 -13.824,-13.817 z"
   id="path1887-6"
   style="fill:#7b83eb;fill-opacity:1"
   sodipodi:nodetypes="sssscccccccccsssscs" /><path
   d="M 224.753,181.689 H 197.19 c -7.622,0 -13.825,6.2 -13.825,13.824 v 60.53 c 0,0.522 -0.198,0.995 -0.554,1.36 -0.371,0.355 -0.845,0.544 -1.374,0.538 l -7.917,-0.065 c -4.139,-0.046 -6.604,1.519 -7.962,2.844 -3.207,3.198 -3.225,8.597 -0.023,12.877 l 35.589,47.576 c 2.376,3.174 5.83,5.007 9.48,5.017 3.648,0 7.109,-1.817 9.486,-4.986 l 35.581,-47.403 c 1.661,-2.203 2.499,-4.493 2.499,-6.794 0,-4.458 -3.57,-8.993 -10.395,-8.993 h -7.222 c -1.092,0 -1.976,-0.889 -1.976,-1.976 v -60.532 c 0.004,-7.617 -6.202,-13.817 -13.824,-13.817 z m 17.428,88.182 c 0.899,0 -0.487,2.828 -3.112,6.316 l -23.715,31.585 c -2.625,3.494 -6.857,3.484 -9.473,-0.005 L 182.18,276.085 c -2.613,-3.493 -3.862,-6.316 -2.796,-6.312 l 1.935,0.016 c 3.707,0.04 7.19,-1.377 9.813,-3.967 2.623,-2.6 4.075,-6.083 4.075,-9.779 v -60.53 c 0,-1.089 0.886,-1.975 1.976,-1.975 h 27.565 c 1.087,0 1.976,0.886 1.976,1.975 v 60.53 c 0,7.621 6.2,13.827 13.822,13.827 0.01,10e-4 0.737,10e-4 1.635,10e-4 z"
   id="path1887"
   style="fill:#4f57be;fill-opacity:1" /><path
   d="m 286.57797,104.26023 c -69.04,-4.714998 -158.301,2.369 -159.037,2.443 -1.998,0.071 -49.311974,2.036 -86.678984,38.36101 -3.61,3.506 -7.07099,7.307 -10.26299,11.266 -35.7680001,44.311 -25.3740002,84.733 -15.987,104.888 4.819,10.38 18.722,15.564 30.36599,11.283 l 68.145984,-25.105 c 3.255,-1.214 6.518,-3.326 9.392,-6.124 5.878,-5.723 9.656,-13.634 9.869,-20.657 l 0.868,-29.122 c 0.127,-4.313 2.679,-9.615 6.342,-13.177 1.574,-1.523 3.225,-2.59 4.766,-3.08 15.056,-4.773 40.812,-10.098 78.026,-8.478 33.042,1.455 52.277,5.769 62.586,9.132 5.769,1.872 10.136,10.603 10.049,16.867 l -0.381,26.299 c -0.162,10.943 7.262,23.566 16.89,28.746 l 61.307,33.058 c 9.328,5.022 24.308,5.032 33.28,-3.696 12.025,-12.518 25.156,-33.932 19.403,-64.958 -8.896,-47.967 -64.556,-102.88001 -138.943,-107.94601 z"
   id="path1885-3"
   style="fill:#7b83eb;fill-opacity:1;stroke-width:1.00157;stroke-miterlimit:4;stroke-dasharray:none"
   sodipodi:nodetypes="ccccccccccccccccccccc" /><path
   d="m 280.972,96.739 c -69.04,-4.715 -158.301,2.369 -159.037,2.443 -1.998,0.071 -49.312,2.036 -86.679,38.361 -3.61,3.506 -7.071,7.307 -10.263,11.266 -35.768,44.311 -25.374,84.733 -15.987,104.888 4.819,10.38 18.722,15.564 30.366,11.283 l 68.146,-25.105 c 3.255,-1.214 6.518,-3.326 9.392,-6.124 5.878,-5.723 9.656,-13.634 9.869,-20.657 l 0.868,-29.122 c 0.127,-4.313 2.679,-9.615 6.342,-13.177 1.574,-1.523 3.225,-2.59 4.766,-3.08 15.056,-4.773 40.812,-10.098 78.026,-8.478 33.042,1.455 52.277,5.769 62.586,9.132 5.769,1.872 10.136,10.603 10.049,16.867 l -0.381,26.299 c -0.162,10.943 7.262,23.566 16.89,28.746 l 61.307,33.058 c 9.328,5.022 24.308,5.032 33.28,-3.696 12.025,-12.518 25.156,-33.932 19.403,-64.958 -8.896,-47.967 -64.556,-102.88 -138.943,-107.946 z m 110.821,164.875 c -4.306,4.148 -13.705,4.107 -18.936,1.279 L 311.55,229.84 c -5.773,-3.098 -10.76,-11.582 -10.663,-18.139 l 0.376,-26.301 c 0.152,-10.75 -7.13,-24.687 -18.23,-28.305 -11.004,-3.595 -31.347,-8.193 -65.729,-9.702 -38.938,-1.699 -66.153,3.966 -82.111,9.013 -3.28,1.028 -6.55,3.083 -9.465,5.911 -5.9,5.733 -9.709,13.903 -9.93,21.305 l -0.879,29.114 c -0.165,5.789 -6.02,13.979 -11.517,16.011 l -68.131,25.101 c -5.197,1.909 -13.106,0.076 -15.531,-5.139 -8.224,-17.656 -17.271,-53.148 14.457,-92.452 2.892,-3.588 6.027,-7.023 9.315,-10.214 33.692,-32.753 77.183,-34.942 79.095,-35.028 0.86,-0.071 89.766,-7.079 157.552,-2.458 66.562,4.542 119.982,54.494 128.103,98.292 4.844,26.054 -6.271,44.161 -16.469,54.765 z"
   id="path1885"
   style="fill:#4f57be;fill-opacity:1;stroke-width:1.00157;stroke-miterlimit:4;stroke-dasharray:none" />
	</g>
</g>
<g
   id="g1893"
   transform="translate(4.4643912e-5,-95.121163)">
</g>
<g
   id="g1895"
   transform="translate(4.4643912e-5,-95.121163)">
</g>
<g
   id="g1897"
   transform="translate(4.4643912e-5,-95.121163)">
</g>
<g
   id="g1899"
   transform="translate(4.4643912e-5,-95.121163)">
</g>
<g
   id="g1901"
   transform="translate(4.4643912e-5,-95.121163)">
</g>
<g
   id="g1903"
   transform="translate(4.4643912e-5,-95.121163)">
</g>
<g
   id="g1905"
   transform="translate(4.4643912e-5,-95.121163)">
</g>
<g
   id="g1907"
   transform="translate(4.4643912e-5,-95.121163)">
</g>
<g
   id="g1909"
   transform="translate(4.4643912e-5,-95.121163)">
</g>
<g
   id="g1911"
   transform="translate(4.4643912e-5,-95.121163)">
</g>
<g
   id="g1913"
   transform="translate(4.4643912e-5,-95.121163)">
</g>
<g
   id="g1915"
   transform="translate(4.4643912e-5,-95.121163)">
</g>
<g
   id="g1917"
   transform="translate(4.4643912e-5,-95.121163)">
</g>
<g
   id="g1919"
   transform="translate(4.4643912e-5,-95.121163)">
</g>
<g
   id="g1921"
   transform="translate(4.4643912e-5,-95.121163)">
</g>
</svg>
