<?xml version="1.0" encoding="UTF-8" standalone="no"?>
<svg
   xmlns:dc="http://purl.org/dc/elements/1.1/"
   xmlns:cc="http://creativecommons.org/ns#"
   xmlns:rdf="http://www.w3.org/1999/02/22-rdf-syntax-ns#"
   xmlns:svg="http://www.w3.org/2000/svg"
   xmlns="http://www.w3.org/2000/svg"
   xmlns:sodipodi="http://sodipodi.sourceforge.net/DTD/sodipodi-0.dtd"
   xmlns:inkscape="http://www.inkscape.org/namespaces/inkscape"
   version="1.1"
   id="Layer_1"
   x="0px"
   y="0px"
   viewBox="0 0 512 512"
   style="enable-background:new 0 0 512 512;"
   xml:space="preserve"
   sodipodi:docname="mute-technology.svg"
   inkscape:version="1.0.1 (3bc2e813f5, 2020-09-07)"
   inkscape:export-filename="/home/jwittouck/workspaces/streamdeck/teams/mute-technology.png"
   inkscape:export-xdpi="96"
   inkscape:export-ydpi="96"><metadata
   id="metadata236"><rdf:RDF><cc:Work
       rdf:about=""><dc:format>image/svg+xml</dc:format><dc:type
         rdf:resource="http://purl.org/dc/dcmitype/StillImage" /></cc:Work></rdf:RDF></metadata><defs
   id="defs234" /><sodipodi:namedview
   pagecolor="#ffffff"
   bordercolor="#666666"
   borderopacity="1"
   objecttolerance="10"
   gridtolerance="10"
   guidetolerance="10"
   inkscape:pageopacity="0"
   inkscape:pageshadow="2"
   inkscape:window-width="1268"
   inkscape:window-height="671"
   id="namedview232"
   showgrid="false"
   inkscape:zoom="1.875"
   inkscape:cx="176.34409"
   inkscape:cy="284.98425"
   inkscape:window-x="2568"
   inkscape:window-y="724"
   inkscape:window-maximized="0"
   inkscape:current-layer="g199" />
<g
   transform="translate(1 1)"
   id="g199">
	<g
   id="g175">
		<path
   style="fill:#7b83eb;fill-opacity:1"
   d="M268.017,511c-5.207,0-8.678-3.471-8.678-8.678v-60.746c0-5.207,3.471-8.678,8.678-8.678    s8.678,3.471,8.678,8.678v60.746C276.695,507.529,273.224,511,268.017,511z"
   id="path167" />
		<path
   style="fill:#7b83eb;fill-opacity:1"
   d="M320.085,511H215.949c-5.207,0-8.678-3.471-8.678-8.678c0-5.207,3.471-8.678,8.678-8.678h104.136    c5.207,0,8.678,3.471,8.678,8.678C328.763,507.529,325.292,511,320.085,511z"
   id="path169" />
		<path
   style="fill:#7b83eb;fill-opacity:1"
   d="M268.017,450.254c-76.366,0-138.847-62.481-138.847-138.847v-52.068    c0-5.207,3.471-8.678,8.678-8.678c5.207,0,8.678,3.471,8.678,8.678v52.068c0,66.82,54.671,121.492,121.492,121.492    s121.492-54.671,121.492-121.492v-52.068c0-5.207,3.471-8.678,8.678-8.678s8.678,3.471,8.678,8.678v52.068    C406.864,387.773,344.383,450.254,268.017,450.254z"
   id="path171" />
		<path
   style="fill:#7b83eb;fill-opacity:1"
   d="M285.373,389.508L285.373,389.508c-47.729,0-86.78-39.051-86.78-86.78V94.458    c0-47.729,39.051-86.78,86.78-86.78s86.78,39.051,86.78,86.78v208.271C372.153,350.458,333.102,389.508,285.373,389.508"
   id="path173" />
	</g>
	<path
   style="fill:#CCCCCC;"
   d="M259.339,389.508L259.339,389.508c-47.729,0-86.78-39.051-86.78-86.78V94.458   c0-47.729,39.051-86.78,86.78-86.78s86.78,39.051,86.78,86.78v208.271C346.119,350.458,307.068,389.508,259.339,389.508"
   id="path177" />
	<path
   style="fill:#7b83eb;fill-opacity:1"
   d="M259.339,389.508L259.339,389.508c-47.729,0-86.78-39.051-86.78-86.78V94.458   c0-47.729,39.051-86.78,86.78-86.78s60.746,39.051,60.746,86.78v208.271C320.085,350.458,307.068,389.508,259.339,389.508"
   id="path179" />
	<path
   style="fill:#EEEEEE;"
   d="M259.339,389.508c-47.729,0-60.746-39.051-60.746-86.78V94.458c0-47.729,13.017-86.78,60.746-86.78   c-47.729,0-86.78,39.051-86.78,86.78v208.271C172.559,350.458,211.61,389.508,259.339,389.508"
   id="path181" />
	<g
   id="g197">
		<path
   style="fill:#4f57be;fill-opacity:1"
   d="M259.339,441.576c-76.366,0-138.847-62.481-138.847-138.847v-52.068    c0-5.207,3.471-8.678,8.678-8.678c5.207,0,8.678,3.471,8.678,8.678v52.068c0,66.82,54.671,121.492,121.492,121.492    s121.492-54.671,121.492-121.492v-52.068c0-5.207,3.471-8.678,8.678-8.678c5.207,0,8.678,3.471,8.678,8.678v52.068    C398.186,379.095,335.705,441.576,259.339,441.576z"
   id="path183" />
		<path
   style="fill:#4f57be;fill-opacity:1"
   d="M259.339,398.186c-52.936,0-95.458-42.522-95.458-95.458V94.458    C163.881,41.522,206.403-1,259.339-1s95.458,42.522,95.458,95.458v208.271C354.797,355.664,312.275,398.186,259.339,398.186z     M259.339,16.356c-43.39,0-78.102,34.712-78.102,78.102v208.271c0,43.39,34.712,78.102,78.102,78.102s78.102-34.712,78.102-78.102    V94.458C337.441,51.068,302.729,16.356,259.339,16.356z"
   id="path185" />
		<path
   style="fill:#4f57be;fill-opacity:1"
   d="M259.339,502.322c-5.207,0-8.678-3.471-8.678-8.678v-60.746c0-5.207,3.471-8.678,8.678-8.678    c5.207,0,8.678,3.471,8.678,8.678v60.746C268.017,498.851,264.546,502.322,259.339,502.322z"
   id="path187" />
		<path
   style="fill:#4f57be;fill-opacity:1"
   d="M311.407,502.322H207.271c-5.207,0-8.678-3.471-8.678-8.678s3.471-8.678,8.678-8.678h104.136    c5.207,0,8.678,3.471,8.678,8.678S316.614,502.322,311.407,502.322z"
   id="path189" />
		<path
   style="fill:#4f57be;fill-opacity:1"
   d="M372.153,129.169c-2.603,0-4.339-0.868-6.075-2.603c-3.471-3.471-3.471-8.678,0-12.149    l78.102-78.102c3.471-3.471,8.678-3.471,12.149,0c3.471,3.471,3.471,8.678,0,12.149l-78.102,78.102    C376.492,128.302,374.756,129.169,372.153,129.169z"
   id="path191" />
		<path
   style="fill:#4f57be;fill-opacity:1"
   d="M198.593,302.729c-2.603,0-4.339-0.868-6.075-2.603c-3.471-3.471-3.471-8.678,0-12.149    L314.01,166.485c3.471-3.471,8.678-3.471,12.149,0c3.471,3.471,3.471,8.678,0,12.149L204.668,300.125    C202.932,301.861,201.197,302.729,198.593,302.729z"
   id="path193" />
		<path
   style="fill:#4f57be;fill-opacity:1"
   d="M59.746,441.576c-2.603,0-4.339-0.868-6.075-2.603c-3.471-3.471-3.471-8.678,0-12.149    l60.746-60.746c3.471-3.471,8.678-3.471,12.149,0c3.471,3.471,3.471,8.678,0,12.149L65.82,438.973    C64.085,440.708,62.349,441.576,59.746,441.576z"
   id="path195" />
	</g>
</g>
<g
   id="g201">
</g>
<g
   id="g203">
</g>
<g
   id="g205">
</g>
<g
   id="g207">
</g>
<g
   id="g209">
</g>
<g
   id="g211">
</g>
<g
   id="g213">
</g>
<g
   id="g215">
</g>
<g
   id="g217">
</g>
<g
   id="g219">
</g>
<g
   id="g221">
</g>
<g
   id="g223">
</g>
<g
   id="g225">
</g>
<g
   id="g227">
</g>
<g
   id="g229">
</g>
</svg>
