<?xml version="1.0" encoding="UTF-8" standalone="no"?>
<svg
   xmlns:dc="http://purl.org/dc/elements/1.1/"
   xmlns:cc="http://creativecommons.org/ns#"
   xmlns:rdf="http://www.w3.org/1999/02/22-rdf-syntax-ns#"
   xmlns:svg="http://www.w3.org/2000/svg"
   xmlns="http://www.w3.org/2000/svg"
   xmlns:sodipodi="http://sodipodi.sourceforge.net/DTD/sodipodi-0.dtd"
   xmlns:inkscape="http://www.inkscape.org/namespaces/inkscape"
   version="1.1"
   id="Layer_1"
   x="0px"
   y="0px"
   viewBox="0 0 512.898 512.898"
   style="enable-background:new 0 0 512.898 512.898;"
   xml:space="preserve"
   sodipodi:docname="video-camera-technology.svg"
   inkscape:version="1.0.1 (3bc2e813f5, 2020-09-07)"><metadata
   id="metadata1243"><rdf:RDF><cc:Work
       rdf:about=""><dc:format>image/svg+xml</dc:format><dc:type
         rdf:resource="http://purl.org/dc/dcmitype/StillImage" /></cc:Work></rdf:RDF></metadata><defs
   id="defs1241" /><sodipodi:namedview
   pagecolor="#ffffff"
   bordercolor="#666666"
   borderopacity="1"
   objecttolerance="10"
   gridtolerance="10"
   guidetolerance="10"
   inkscape:pageopacity="0"
   inkscape:pageshadow="2"
   inkscape:window-width="1268"
   inkscape:window-height="671"
   id="namedview1239"
   showgrid="false"
   inkscape:zoom="0.69483954"
   inkscape:cx="336.83705"
   inkscape:cy="140.28086"
   inkscape:window-x="2568"
   inkscape:window-y="8"
   inkscape:window-maximized="0"
   inkscape:current-layer="Layer_1" />
<g
   transform="translate(1 1)"
   id="g1206">
	<g
   id="g1174">
		<path
   style="fill:#7b83eb;fill-opacity:1"
   d="M124.754,480.011c-1.796,0-2.695,0-4.491-0.898c-4.491-1.797-6.288-8.084-3.593-11.677    l72.758-143.719c2.695-4.491,8.084-6.288,11.677-3.593c4.491,1.797,6.288,8.084,3.593,11.677L131.94,475.519    C131.042,478.214,128.347,480.011,124.754,480.011z"
   id="path1170" />
		<path
   style="fill:#7b83eb;fill-opacity:1"
   d="M268.474,480.011c-3.593,0-6.288-1.796-8.084-5.389l-70.961-143.719    c-1.797-4.491,0-9.881,4.491-11.677c4.491-1.797,9.881,0,11.677,4.491l70.961,143.719c1.797,4.491,0,9.881-4.491,11.677    C271.168,480.011,269.372,480.011,268.474,480.011z"
   id="path1172" />
	</g>
	<path
   style="fill:#cccccc;fill-opacity:1"
   d="M475.07,299.463L362.789,192.572c-6.288-6.288-6.288-16.168,0-22.456L475.968,65.919   c9.881-9.881,26.049-2.695,26.049,11.677v103.298v107.789C502.018,303.056,484.951,309.344,475.07,299.463"
   id="path1176" />
	<path
   style="fill:#cccccc;fill-opacity:1"
   d="M176.853,318.326H42.116c-18.863,0-34.133-15.27-34.133-34.133V74.902   c0-18.863,16.168-35.032,35.032-35.032h135.635c19.761,0,35.032,16.168,35.032,35.032V280.6   C213.681,301.26,197.512,318.326,176.853,318.326"
   id="path1178" />
	<path
   style="fill:#7b83eb;fill-opacity:1"
   d="M320.572,318.326H185.835c-18.863,0-34.133-15.27-34.133-34.133V74.902   c0.898-18.863,16.168-35.032,35.93-35.032h135.635c18.863,0,35.032,16.168,35.032,35.032V280.6   C358.298,301.26,341.232,318.326,320.572,318.326"
   id="path1180" />
	<path
   style="fill:#7b83eb;fill-opacity:1"
   d="M293.625,318.326H69.063c-18.863,0-34.133-15.27-34.133-34.133V74.902   c0-18.863,16.168-35.032,35.032-35.032h225.46c19.761,0,35.93,16.168,35.93,35.032V280.6   C331.351,301.26,314.284,318.326,293.625,318.326"
   id="path1182" />
	
	<g
   id="g1190">
		
		<path
   style="fill:#7b83eb;fill-opacity:1"
   d="M474.172,72.207c-7.186,9.881-20.66,16.168-34.133,20.66c0,8.084-4.491,14.372-12.575,19.761    c-4.491,2.695-8.982,5.389-12.575,8.982c-2.695,4.491-4.491,9.881-5.389,14.372c-2.695,8.982-14.372,8.084-17.965,1.796    c-9.881,11.677-19.761,23.354-30.54,34.133c1.797,5.389,3.593,11.677,6.288,17.067c2.695,3.593,1.797,7.186,0,9.881    c24.253,22.456,45.811,48.505,72.758,68.267c2.695,1.797,3.593,4.491,4.491,7.186c8.982,8.084,18.863,15.27,27.846,22.456    l0.898,0.898c1.797-2.695,2.695-5.389,2.695-8.982V77.596C475.07,75.8,475.07,74.004,474.172,72.207"
   id="path1188" />
	</g>
	<g
   id="g1204">
		<path
   style="fill:#4f57be;fill-opacity:1"
   d="M320.572,327.309H42.116C17.863,327.309-1,308.446-1,284.193V74.902    c0-24.253,19.761-44.014,44.014-44.014h279.354c25.151,0,44.912,19.761,44.912,44.014V280.6    C367.281,306.649,346.621,327.309,320.572,327.309z M43.014,48.853c-14.372,0-26.049,11.677-26.049,26.049v209.291    c0,13.474,11.677,25.151,25.151,25.151h278.456c16.168,0,28.744-12.575,28.744-28.744V74.902    c0-14.372-11.677-26.049-26.049-26.049H43.014z"
   id="path1192" />
		<path
   style="fill:#4f57be;fill-opacity:1"
   d="M485.849,313.835c-6.288,0-12.575-2.695-17.067-7.186L356.502,198.86    c-4.491-5.389-7.186-11.677-7.186-17.965c0-7.186,2.695-12.575,8.084-17.965L469.681,59.632    c7.186-7.186,17.067-8.982,26.947-4.491c8.982,3.593,15.27,12.575,15.27,22.456v211.088c0,9.881-6.288,18.863-15.27,23.354    C492.137,312.937,489.442,313.835,485.849,313.835z M485.849,70.411c-0.898,0-2.695,0-4.491,1.796L369.077,176.404    c-0.898,0.898-1.797,2.695-1.797,4.491s0.898,3.593,1.797,5.389l112.281,106.891l0,0c2.695,2.695,6.288,1.796,7.186,1.796    c0.898,0,4.491-1.796,4.491-6.288V77.596c0-4.491-2.695-6.288-4.491-6.288C488.544,71.309,487.646,70.411,485.849,70.411z"
   id="path1194" />
		<path
   style="fill:#4f57be;fill-opacity:1"
   d="M115.772,471.028c-1.796,0-2.695,0-4.491-0.898c-4.491-1.797-6.288-8.084-3.593-11.677    l72.758-143.719c2.695-4.491,8.084-6.288,11.677-3.593c4.491,1.797,6.288,8.084,3.593,11.677l-72.758,143.719    C122.06,469.232,119.365,471.028,115.772,471.028z"
   id="path1196" />
		<path
   style="fill:#4f57be;fill-opacity:1"
   d="M259.491,471.028c-3.593,0-6.288-1.796-8.084-5.389l-70.961-143.719    c-1.796-4.491,0-9.881,4.491-11.677c4.491-1.796,9.881,0,11.677,4.491l70.961,143.719c1.797,4.491,0,9.881-4.491,11.677    C262.186,471.028,260.389,471.028,259.491,471.028z"
   id="path1198" />
		
		
	</g>
</g>
<g
   id="g1208">
</g>
<g
   id="g1210">
</g>
<g
   id="g1212">
</g>
<g
   id="g1214">
</g>
<g
   id="g1216">
</g>
<g
   id="g1218">
</g>
<g
   id="g1220">
</g>
<g
   id="g1222">
</g>
<g
   id="g1224">
</g>
<g
   id="g1226">
</g>
<g
   id="g1228">
</g>
<g
   id="g1230">
</g>
<g
   id="g1232">
</g>
<g
   id="g1234">
</g>
<g
   id="g1236">
</g>
</svg>
