<?xml version="1.0" encoding="UTF-8" standalone="no"?>
<svg
   xmlns:dc="http://purl.org/dc/elements/1.1/"
   xmlns:cc="http://creativecommons.org/ns#"
   xmlns:rdf="http://www.w3.org/1999/02/22-rdf-syntax-ns#"
   xmlns:svg="http://www.w3.org/2000/svg"
   xmlns="http://www.w3.org/2000/svg"
   xmlns:sodipodi="http://sodipodi.sourceforge.net/DTD/sodipodi-0.dtd"
   xmlns:inkscape="http://www.inkscape.org/namespaces/inkscape"
   height="16"
   viewBox="0 0 16 16"
   width="16"
   version="1.1"
   id="svg897"
   sodipodi:docname="status_ok.svg"
   inkscape:version="1.0.1 (3bc2e813f5, 2020-09-07)"
   inkscape:export-filename="/home/jwittouck/workspaces/streamdeck/gitlab/status_ok.png"
   inkscape:export-xdpi="432"
   inkscape:export-ydpi="432">
  <metadata
     id="metadata903">
    <rdf:RDF>
      <cc:Work
         rdf:about="">
        <dc:format>image/svg+xml</dc:format>
        <dc:type
           rdf:resource="http://purl.org/dc/dcmitype/StillImage" />
        <dc:title></dc:title>
      </cc:Work>
    </rdf:RDF>
  </metadata>
  <defs
     id="defs901" />
  <sodipodi:namedview
     pagecolor="#ffffff"
     bordercolor="#666666"
     borderopacity="1"
     objecttolerance="10"
     gridtolerance="10"
     guidetolerance="10"
     inkscape:pageopacity="1"
     inkscape:pageshadow="2"
     inkscape:window-width="1268"
     inkscape:window-height="657"
     id="namedview899"
     showgrid="false"
     inkscape:zoom="20.594485"
     inkscape:cx="14.673614"
     inkscape:cy="5.1109996"
     inkscape:window-x="1284"
     inkscape:window-y="737"
     inkscape:window-maximized="0"
     inkscape:current-layer="svg897"
     inkscape:document-rotation="0"
     inkscape:pagecheckerboard="true" />
  <path
     d="M7.536 8.657l2.828-2.83c.39-.39 1.024-.39 1.414 0 .39.392.39 1.025 0 1.416l-3.535 3.535c-.196.195-.452.293-.707.293-.256 0-.512-.097-.708-.292l-2.12-2.12c-.39-.392-.39-1.025 0-1.415s1.023-.39 1.413 0zM8 16c-4.418 0-8-3.582-8-8s3.582-8 8-8 8 3.582 8 8-3.582 8-8 8zm0-2c3.314 0 6-2.686 6-6s-2.686-6-6-6-6 2.686-6 6 2.686 6 6 6z"
     id="path895"
     style="stroke-width:1.0015748;stroke-miterlimit:4;stroke-dasharray:none;stroke:none;stroke-opacity:1;fill:#108548;fill-opacity:1" />
</svg>
