<?xml version="1.0" encoding="UTF-8" standalone="no"?>
<svg
   xmlns:dc="http://purl.org/dc/elements/1.1/"
   xmlns:cc="http://creativecommons.org/ns#"
   xmlns:rdf="http://www.w3.org/1999/02/22-rdf-syntax-ns#"
   xmlns:svg="http://www.w3.org/2000/svg"
   xmlns="http://www.w3.org/2000/svg"
   xmlns:sodipodi="http://sodipodi.sourceforge.net/DTD/sodipodi-0.dtd"
   xmlns:inkscape="http://www.inkscape.org/namespaces/inkscape"
   width="14"
   height="14"
   viewBox="0 0 14 14"
   version="1.1"
   id="svg875"
   sodipodi:docname="status_failed.svg"
   inkscape:version="1.0.1 (3bc2e813f5, 2020-09-07)"
   inkscape:export-filename="/home/jwittouck/workspaces/streamdeck/gitlab/status_failed.png"
   inkscape:export-xdpi="493.70999"
   inkscape:export-ydpi="493.70999">
  <metadata
     id="metadata881">
    <rdf:RDF>
      <cc:Work
         rdf:about="">
        <dc:format>image/svg+xml</dc:format>
        <dc:type
           rdf:resource="http://purl.org/dc/dcmitype/StillImage" />
        <dc:title></dc:title>
      </cc:Work>
    </rdf:RDF>
  </metadata>
  <defs
     id="defs879" />
  <sodipodi:namedview
     pagecolor="#ffffff"
     bordercolor="#666666"
     borderopacity="1"
     objecttolerance="10"
     gridtolerance="10"
     guidetolerance="10"
     inkscape:pageopacity="1"
     inkscape:pageshadow="2"
     inkscape:window-width="1268"
     inkscape:window-height="657"
     id="namedview877"
     showgrid="false"
     inkscape:pagecheckerboard="true"
     inkscape:zoom="61.215245"
     inkscape:cx="3.7416567"
     inkscape:cy="7.8133897"
     inkscape:window-x="1284"
     inkscape:window-y="737"
     inkscape:window-maximized="0"
     inkscape:current-layer="g873"
     inkscape:document-rotation="0" />
  <g
     fill-rule="evenodd"
     id="g873">
    <path
       d="M0 7a7 7 0 1 1 14 0A7 7 0 0 1 0 7z"
       id="path867"
       style="fill:#dc3545;fill-opacity:1" />
    <path
       d="M13 7A6 6 0 1 0 1 7a6 6 0 0 0 12 0z"
       fill="#FFF"
       style="fill: var(--svg-status-bg, #fff);"
       id="path869" />
    <path
       d="M7 5.969L5.599 4.568a.29.29 0 0 0-.413.004l-.614.614a.294.294 0 0 0-.004.413L5.968 7l-1.4 1.401a.29.29 0 0 0 .004.413l.614.614c.113.114.3.117.413.004L7 8.032l1.401 1.4a.29.29 0 0 0 .413-.004l.614-.614a.294.294 0 0 0 .004-.413L8.032 7l1.4-1.401a.29.29 0 0 0-.004-.413l-.614-.614a.294.294 0 0 0-.413-.004L7 5.968z"
       id="path871"
       style="fill:#dc3545;fill-opacity:1" />
  </g>
</svg>
